<?xml version="1.0" encoding="UTF-8" standalone="no"?>
<!-- Created with Inkscape (http://www.inkscape.org/) -->
<svg
   xmlns:svg="http://www.w3.org/2000/svg"
   xmlns="http://www.w3.org/2000/svg"
   version="1.0"
   x="0.0000000"
   y="0.0000000"
   width="12.000000"
   height="7.0000000"
   id="svg1361">
  <defs
     id="defs1363" />
  <g
     style="fill:#000000;fill-opacity:1.0000000"
     id="layer1">
    <g
       transform="translate(-199.3990,-536.4730)"
       style="fill:#000000;fill-opacity:1.0000000"
       id="g2912">
      <path
         d="M 206.04921,542.89329 C 204.33221,542.80244 202.99047,541.27833 202.45208,539.70226 C 202.12589,538.77722 202.30505,537.38950 203.39174,537.12966 C 204.96615,536.86226 206.27260,538.19967 207.00481,539.47953 C 207.52641,540.42880 207.81478,541.92368 206.83679,542.67615 C 206.60458,542.83188 206.32387,542.89434 206.04921,542.89329 z M 208.78446,537.49000 C 206.85001,536.31510 204.40641,536.22358 202.28813,536.88110 C 200.94630,537.35025 199.41169,538.34823 199.39900,539.97250 C 199.39807,541.56396 200.87900,542.55675 202.18949,543.02959 C 204.26418,543.70824 206.65796,543.64856 208.59501,542.56669 C 209.69149,541.98333 210.66334,540.77535 210.33379,539.43643 C 210.15258,538.57546 209.49304,537.93123 208.78446,537.49000 z "
         style="fill:#000000;fill-opacity:1.0000000"
         id="path2918" />
    </g>
  </g>
</svg>
