<?xml version="1.0" encoding="UTF-8" standalone="no"?>
<svg
   xmlns:dc="http://purl.org/dc/elements/1.1/"
   xmlns:cc="http://creativecommons.org/ns#"
   xmlns:rdf="http://www.w3.org/1999/02/22-rdf-syntax-ns#"
   xmlns:svg="http://www.w3.org/2000/svg"
   xmlns="http://www.w3.org/2000/svg"
   id="svg2"
   viewBox="0 0 2.008 1"
   height="1.7572987mm"
   width="3.5286558mm"
   version="1.2">
  <title
     id="title3372">mordant</title>
  <metadata
     id="metadata44">
    <rdf:RDF>
      <cc:Work
         rdf:about="">
        <dc:format>image/svg+xml</dc:format>
        <dc:type
           rdf:resource="http://purl.org/dc/dcmitype/StillImage" />
        <dc:title>mordant</dc:title>
        <cc:license
           rdf:resource="http://creativecommons.org/publicdomain/mark/1.0/" />
      </cc:Work>
      <cc:License
         rdf:about="http://creativecommons.org/publicdomain/mark/1.0/">
        <cc:permits
           rdf:resource="http://creativecommons.org/ns#Reproduction" />
        <cc:permits
           rdf:resource="http://creativecommons.org/ns#Distribution" />
        <cc:permits
           rdf:resource="http://creativecommons.org/ns#DerivativeWorks" />
      </cc:License>
    </rdf:RDF>
  </metadata>
  <defs
     id="defs42" />
  <path
     style="fill:currentColor"
     id="path22"
     d="M 1.864,0.316 C 1.88,0.292 1.9,0.28 1.928,0.28 c 0.044,0 0.08,0.036 0.08,0.08 0,0.016 -0.004,0.032 -0.012,0.044 C 1.872,0.592 1.748,0.776 1.624,0.964 1.608,0.988 1.584,1 1.556,1 1.532,1 1.512,0.992 1.496,0.972 L 1.104,0.496 0.792,0.964 C 0.776,0.988 0.752,1 0.724,1 0.7,1 0.68,0.992 0.664,0.972 L 0.268,0.496 C 0.228,0.56 0.184,0.62 0.144,0.684 0.128,0.708 0.108,0.72 0.08,0.72 0.036,0.72 0,0.684 0,0.64 0,0.624 0.004,0.608 0.012,0.596 0.136,0.408 0.26,0.224 0.384,0.036 0.4,0.012 0.424,0 0.452,0 0.476,0 0.496,0.008 0.512,0.028 L 0.904,0.504 1.216,0.036 C 1.232,0.012 1.256,0 1.284,0 1.308,0 1.328,0.008 1.344,0.028 L 1.74,0.504 C 1.78,0.44 1.824,0.38 1.864,0.316 Z" />
</svg>
